# xmcd
#
# Track frame offsets:
#	182
#	20835
#	36662
#	49185
#	66270
#	79197
#	95650
#	115792
#	134750
#	151342
#	170145
#	191505
#	208132
#	231337
#	245410
#
# Disc length: 3511 seconds
# Revision: 0
# Processed by: cddbd v1.5.2PL0 Copyright (c) Steve Scherf et al.
# Submitted via: dBpowerAMP V12.0
#
DISCID=e40db50f
DTITLE=Bok, Muir and Trickett - Language Of The Heart
DYEAR=1994
DGENRE=Folk
TTITLE0=Blue Mountain
TTITLE1=Steven Foster
TTITLE2=Madrecita
TTITLE3=Language Of The Heart
TTITLE4=Marco Polo
TTITLE5=Ballinderry
TTITLE6=Can Do
TTITLE7=Brännvinslåt
TTITLE8=Huck Finn
TTITLE9=Merlin's Waltz
TTITLE10=Laird o' Drum
TTITLE11=Tak a dram afire ye go
TTITLE12=That Quiet Place
TTITLE13=Cuckoo • Spotted Pony
TTITLE14=Good Wish
EXTD=
EXTT0=
EXTT1=
EXTT2=
EXTT3=
EXTT4=
EXTT5=
EXTT6=
EXTT7=
EXTT8=
EXTT9=
EXTT10=
EXTT11=
EXTT12=
EXTT13=
EXTT14=
PLAYORDER=
